<?xml version="1.0" encoding="UTF-8" standalone="no"?>
<svg
   xmlns:dc="http://purl.org/dc/elements/1.1/"
   xmlns:cc="http://creativecommons.org/ns#"
   xmlns:rdf="http://www.w3.org/1999/02/22-rdf-syntax-ns#"
   xmlns:svg="http://www.w3.org/2000/svg"
   xmlns="http://www.w3.org/2000/svg"
   xmlns:xlink="http://www.w3.org/1999/xlink"
   height="472.64001"
   width="483.31732"
   version="1.1"
   viewBox="0 0 453.10999 443.10001"
   id="svg5277">
  <title
     id="title10465">Globe</title>
  <defs
     id="defs5279">
    <linearGradient
       id="linearGradient4673">
      <stop
         id="stop4669"
         offset="0"
         style="stop-color:#0000ff;stop-opacity:1;" />
      <stop
         id="stop4671"
         offset="1"
         style="stop-color:#0000ff;stop-opacity:0;" />
    </linearGradient>
    <linearGradient
       id="linearGradient4657">
      <stop
         id="stop4653"
         offset="0"
         style="stop-color:#ff6719;stop-opacity:1;" />
      <stop
         id="stop4655"
         offset="1"
         style="stop-color:#ff6719;stop-opacity:0;" />
    </linearGradient>
    <linearGradient
       id="linearGradient10345">
      <stop
         offset="0"
         style="stop-color:#0489ac;stop-opacity:.53846"
         id="stop10347" />
      <stop
         offset="1"
         style="stop-color:#0034ff"
         id="stop10349" />
    </linearGradient>
    <linearGradient
       gradientTransform="matrix(0.46841655,0,0,0.49061949,240.80828,246.3358)"
       x1="27.959"
       y1="145.36"
       x2="480.04001"
       gradientUnits="userSpaceOnUse"
       xlink:href="#linearGradient10345"
       y2="145.36"
       id="linearGradient10463" />
    <linearGradient
       gradientTransform="matrix(5.7328721,-8.118698e-8,0,0.01835111,3150.2136,497.6053)"
       gradientUnits="userSpaceOnUse"
       y2="-142.24725"
       x2="-589.46904"
       y1="-142.24725"
       x1="-609.375"
       id="linearGradient4659"
       xlink:href="#linearGradient4657" />
    <radialGradient
       gradientUnits="userSpaceOnUse"
       gradientTransform="matrix(0.46841655,0,0,0.46532808,453.32828,120.91144)"
       r="426.5625"
       fy="234.97504"
       fx="-466.875"
       cy="234.97504"
       cx="-466.875"
       id="radialGradient4675"
       xlink:href="#linearGradient4673" />
  </defs>
  <g
     id="layer2">
    <ellipse
       style="fill:url(#radialGradient4675);fill-opacity:1;stroke-width:0.43914053"
       ry="198.49152"
       rx="199.80893"
       cy="230.25192"
       cx="234.63626"
       id="path98" />
    <rect
       transform="matrix(0.48495515,-0.87453902,0.92709511,-0.37482616,0,0)"
       y="491.83575"
       x="-343.25525"
       height="6.3183918"
       width="114.11834"
       id="rect4651"
       style="opacity:1;fill:url(#linearGradient4659);fill-opacity:1;stroke-width:0.30408064" />
    <g
       id="g41"
       transform="matrix(0.0237425,0.01427965,-0.01046794,0.01740481,287.07296,99.156808)">
      <path
         id="path37"
         d="m 801.3882,925.212 c -4.1222,17.1665 -14.6907,29.3257 -30.4462,35.1493 -25.9366,9.5861 -46.9487,-1.978 -59.9796,-24.6365 -2.2269,-3.8456 -3.9421,-7.9816 -5.2701,-12.2144 L 609.2494,617.5683 c -1.7014,-5.3809 -9.6276,-4.288 -9.7938,1.3694 l -5.5746,186.1493 106.3336,797.895 c 3.7487,28.2191 -18.1904,53.2844 -46.6586,53.2844 h -65.1804 c -23.7371,0 -43.7536,-17.6509 -46.7137,-41.1945 l -89.803,-714.0814 -89.8032,714.0814 c -2.9602,23.5436 -22.9764,41.1945 -46.6999,41.1945 h -65.1806 c -28.4682,0 -50.4208,-25.0653 -46.6583,-53.2844 L 309.8503,805.087 304.2756,618.9376 c -0.166,-5.6574 -8.106,-6.7503 -9.7936,-1.3694 l -96.4429,305.9421 c -1.3418,4.2328 -3.0572,8.3688 -5.2704,12.2144 -13.0443,22.6584 -34.0566,34.2225 -59.9794,24.6365 -15.7695,-5.8236 -26.324,-17.9828 -30.4601,-35.1493 -2.5452,-10.61 -2.0059,-21.7316 1.0236,-32.2169 L 241.7785,413.6022 c 13.0031,-45.0538 54.2389,-76.067 101.1324,-76.067 h 217.9096 c 46.8934,0 88.1293,31.0132 101.1321,76.067 L 800.3784,892.995 c 3.0294,10.4854 3.569,21.6069 1.0098,32.217 z" />
      <circle
         id="circle39"
         r="129.10699"
         cy="185.3735"
         cx="451.86441" />
    </g>
  </g>
  <g
     transform="translate(-131.45,-92.811)"
     id="layer1">
    <path
       d="m 308.6612,227.00492 a 105.86214,103.52071 0 0 1 143.78508,40.58617 105.86214,103.52071 0 0 1 -41.3961,140.63535 105.86214,103.52071 0 0 1 -143.84729,-40.37486 105.86214,103.52071 0 0 1 41.17996,-140.69601"
       style="opacity:1;fill:#0467ff;fill-opacity:0.53845999;stroke:url(#linearGradient10463);stroke-width:0.47938952"
       id="path9833" />
    <g
       transform="matrix(0.46306723,-0.07057632,0.07057632,0.46306723,171.79694,199.37237)"
       style="fill:#00d400"
       id="g10428">
      <path
         d="m 229,151.36 -28,25 42,10 -7,31 -1,60 12,18 5,-14 7,10 7,33 14,20 31,6 10,13 8,17 15,19 -29,31 -4,34 22,17 4,27 -11,12 45,-6 24,-38 26,-32 16,-33 -39,-14 -10,-11 -23,7 -7,-7 -5,-46 -1,-18 -20,12 -18,-9 -11,-22 5,-23 24,-2 14,3 8,12 18,-1 -27,-28 9,-18 29,-20 26,-15 -3,-10 -19,-2 3,-13 19,-7 10,-16 -22,-3 -43,3 -8,26 -28,-3 -1,-13 16,-24 15,-2 -2,-21 h -39 l -22,20 -17,-13 h -14 l -12,10 z"
         style="fill:#00d400"
         id="path10353" />
      <path
         d="m 380,113.36 -21,15 31,15 22,9 11,4 v -11 l -10,-19 -2,-11 -20,-1 h -6 z"
         style="fill:#00d400"
         id="path10355" />
      <path
         d="m 457,124.36 -15,4 21,28 12,-7 3,-4 10,8 21,12 -6,1 -6,10 h -7 l -10,-5 1,11 3,2 -1,4 4,8 8,-4 -5,5 5,3 12,-9 -11,-4 3,-3 v -2 l 1,-9 13,7 12,24 -16,3 -2,17 13,18 5,-2 -2,11 -10,2 1,11 16,22 21,-2 4,-28 5,4 2,31 -19,16 -17,15 14,13 11,2 5,16 1,18 -8,23 16,-31 7,-49 -2,-33 -11,-41 -20,-42 -18,-23 -20,-22 -23,-18 z"
         style="fill:#00d400"
         id="path10357" />
    </g>
    <rect
       y="105.24921"
       x="348.52066"
       height="43.035767"
       width="38.644367"
       id="rect4649"
       style="opacity:1;fill:none;fill-opacity:0.53845999;stroke-width:0.43914053" />
  </g>
  <metadata
     id="metadata95">
    <rdf:RDF>
      <cc:Work>
        <dc:format>image/svg+xml</dc:format>
        <dc:type
           rdf:resource="http://purl.org/dc/dcmitype/StillImage" />
        <cc:license
           rdf:resource="http://creativecommons.org/publicdomain/zero/1.0/" />
        <dc:publisher>
          <cc:Agent
             rdf:about="http://openclipart.org/">
            <dc:title>Openclipart</dc:title>
          </cc:Agent>
        </dc:publisher>
        <dc:title>Globe</dc:title>
        <dc:date>2010-09-26T10:30:40</dc:date>
        <dc:description>Earth</dc:description>
        <dc:source>https://openclipart.org/detail/87037/earth-by-stevepetmonkey</dc:source>
        <dc:creator>
          <cc:Agent>
            <dc:title>stevepetmonkey</dc:title>
          </cc:Agent>
        </dc:creator>
        <dc:subject>
          <rdf:Bag>
            <rdf:li>Earth</rdf:li>
            <rdf:li>Global</rdf:li>
            <rdf:li>Globe</rdf:li>
            <rdf:li>Planet</rdf:li>
            <rdf:li>Space</rdf:li>
          </rdf:Bag>
        </dc:subject>
      </cc:Work>
      <cc:License
         rdf:about="http://creativecommons.org/publicdomain/zero/1.0/">
        <cc:permits
           rdf:resource="http://creativecommons.org/ns#Reproduction" />
        <cc:permits
           rdf:resource="http://creativecommons.org/ns#Distribution" />
        <cc:permits
           rdf:resource="http://creativecommons.org/ns#DerivativeWorks" />
      </cc:License>
    </rdf:RDF>
  </metadata>
</svg>
